<?xml version="1.0" standalone="no"?>
<!DOCTYPE svg PUBLIC "-//W3C//DTD SVG 20010904//EN"
 "http://www.w3.org/TR/2001/REC-SVG-20010904/DTD/svg10.dtd">
<svg version="1.0" xmlns="http://www.w3.org/2000/svg"
 width="300.000000pt" height="300.000000pt" viewBox="0 0 300.000000 300.000000"
 preserveAspectRatio="xMidYMid meet">

<g transform="translate(0.000000,300.000000) scale(0.100000,-0.100000)"
fill="#000000" stroke="none">
<path d="M0 1500 l0 -1500 1500 0 1500 0 0 1500 0 1500 -1500 0 -1500 0 0
-1500z m1670 779 c0 -23 -100 -332 -117 -361 -31 -53 -71 -65 -243 -77 -183
-12 -273 -36 -423 -114 -231 -120 -363 -287 -397 -504 -26 -163 53 -319 218
-430 32 -21 58 -38 59 -39 2 0 -4 -22 -13 -48 -14 -40 -19 -46 -38 -40 -52 16
-93 37 -150 78 -123 88 -218 214 -263 350 -23 71 -27 97 -26 206 0 152 20 238
91 385 139 286 433 498 798 574 123 26 141 27 342 29 109 1 162 -1 162 -9z
m1060 -1 c0 -6 -25 -93 -56 -192 -31 -100 -63 -202 -70 -228 l-15 -48 -297 -2
-297 -3 -87 -285 c-49 -157 -100 -322 -113 -367 l-26 -83 -204 0 c-113 0 -205
1 -205 3 1 1 56 182 123 402 l123 400 164 5 c91 3 173 9 183 14 27 13 50 65
102 231 26 83 49 153 52 158 8 13 623 9 623 -5z m-1280 -674 c0 -4 -37 -125
-82 -270 l-81 -264 -204 0 c-112 0 -203 3 -203 7 0 9 107 359 125 409 19 50
60 91 111 109 40 14 334 22 334 9z"/>
</g>
</svg>
