<?xml version="1.0" standalone="no"?>
<!DOCTYPE svg PUBLIC "-//W3C//DTD SVG 20010904//EN"
 "http://www.w3.org/TR/2001/REC-SVG-20010904/DTD/svg10.dtd">
<svg version="1.0" xmlns="http://www.w3.org/2000/svg"
 width="35.000000pt" height="35.000000pt" viewBox="0 0 35.000000 35.000000"
 preserveAspectRatio="xMidYMid meet">

<g transform="translate(0.000000,35.000000) scale(0.100000,-0.100000)"
fill="#000000" stroke="none">
<path d="M0 175 l0 -175 175 0 175 0 0 175 0 175 -175 0 -175 0 0 -175z m188
73 c-2 -17 -14 -25 -47 -35 -24 -7 -52 -20 -62 -29 -23 -21 -24 -61 -2 -86 9
-10 11 -18 5 -18 -16 0 -52 50 -52 72 0 38 31 79 73 99 59 26 89 25 85 -3z
m132 18 c0 -3 -4 -16 -10 -30 -8 -21 -16 -26 -44 -26 -31 0 -35 -3 -48 -42
-14 -44 -43 -62 -59 -36 -6 10 -9 10 -9 1 0 -7 -9 -13 -20 -13 -14 0 -20 7
-20 24 0 29 24 50 49 43 13 -3 21 1 24 14 3 11 14 19 26 19 14 0 25 9 31 25 8
20 16 25 45 25 19 0 35 -2 35 -4z"/>
</g>
</svg>
