<?xml version="1.0" standalone="no"?>
<!DOCTYPE svg PUBLIC "-//W3C//DTD SVG 20010904//EN"
 "http://www.w3.org/TR/2001/REC-SVG-20010904/DTD/svg10.dtd">
<svg version="1.0" xmlns="http://www.w3.org/2000/svg"
 width="75.000000pt" height="75.000000pt" viewBox="0 0 75.000000 75.000000"
 preserveAspectRatio="xMidYMid meet">

<g transform="translate(0.000000,75.000000) scale(0.100000,-0.100000)"
fill="#000000" stroke="none">
<path d="M0 375 l0 -375 375 0 375 0 0 375 0 375 -375 0 -375 0 0 -375z m404
148 c-17 -55 -26 -63 -79 -63 -47 0 -131 -37 -162 -71 -52 -58 -55 -115 -8
-168 19 -21 35 -41 35 -45 0 -15 -31 -4 -61 21 -105 88 -65 262 76 335 58 30
83 36 152 37 l61 1 -14 -47z m276 40 c0 -3 -8 -30 -17 -59 l-16 -53 -75 -3
-75 -3 -26 -85 -27 -85 -51 -3 -52 -3 14 48 c9 26 22 71 31 100 l15 52 47 3
c47 3 47 3 61 51 l15 47 78 0 c43 0 78 -3 78 -7z m-326 -190 c-23 -93 -27 -98
-82 -101 -29 -2 -52 -1 -52 1 0 11 34 104 43 115 5 6 29 12 53 12 43 0 44 -1
38 -27z"/>
</g>
</svg>
